<svg width="68" height="20" viewBox="0 0 68 20" fill="none" xmlns="http://www.w3.org/2000/svg">
<path d="M8.076 6.92C7.836 6.92 7.568 6.92 7.272 6.92C6.984 6.92 6.736 6.92 6.528 6.92C6.352 6.92 6.208 6.92 6.096 6.92C5.992 6.92 5.892 6.92 5.796 6.92C5.708 6.92 5.6 6.92 5.472 6.92C5.248 6.92 5.12 6.956 5.088 7.028C5.056 7.1 5.04 7.248 5.04 7.472C5.04 7.68 5.04 7.864 5.04 8.024C5.04 8.184 5.04 8.332 5.04 8.468C5.04 8.604 5.04 8.744 5.04 8.888C5.04 8.928 5.044 8.972 5.052 9.02C5.06 9.06 5.072 9.1 5.088 9.14C5.112 9.172 5.136 9.2 5.16 9.224C5.192 9.248 5.228 9.26 5.268 9.26C5.428 9.26 5.62 9.26 5.844 9.26C6.076 9.26 6.316 9.26 6.564 9.26C6.812 9.26 7.048 9.26 7.272 9.26C7.496 9.26 7.684 9.26 7.836 9.26C7.996 9.26 8.124 9.296 8.22 9.368C8.316 9.44 8.38 9.532 8.412 9.644C8.444 9.748 8.444 9.856 8.412 9.968C8.38 10.072 8.316 10.16 8.22 10.232C8.124 10.304 7.996 10.34 7.836 10.34C7.684 10.34 7.488 10.34 7.248 10.34C7.016 10.34 6.772 10.34 6.516 10.34C6.26 10.34 6.02 10.34 5.796 10.34C5.58 10.34 5.408 10.34 5.28 10.34C5.2 10.34 5.14 10.34 5.1 10.34C5.06 10.34 5.04 10.372 5.04 10.436C5.04 10.716 5.04 10.996 5.04 11.276C5.04 11.548 5.04 11.796 5.04 12.02C5.04 12.244 5.04 12.416 5.04 12.536C5.04 12.728 5.064 12.84 5.112 12.872C5.16 12.904 5.272 12.92 5.448 12.92C5.664 12.92 5.836 12.92 5.964 12.92C6.092 12.92 6.256 12.92 6.456 12.92C6.64 12.92 6.8 12.92 6.936 12.92C7.08 12.92 7.236 12.92 7.404 12.92C7.58 12.92 7.804 12.92 8.076 12.92C8.276 12.92 8.424 12.976 8.52 13.088C8.624 13.192 8.676 13.316 8.676 13.46C8.676 13.604 8.624 13.732 8.52 13.844C8.424 13.948 8.276 14 8.076 14C7.804 14 7.512 14 7.2 14C6.888 14 6.64 14 6.456 14C6.256 14 6.1 14 5.988 14C5.876 14 5.78 14 5.7 14C5.628 14 5.544 14 5.448 14C5.128 14 4.856 13.952 4.632 13.856C4.416 13.76 4.248 13.604 4.128 13.388C4.016 13.172 3.96 12.888 3.96 12.536C3.96 12.352 3.96 12.132 3.96 11.876C3.96 11.62 3.96 11.364 3.96 11.108C3.96 10.852 3.96 10.628 3.96 10.436C3.96 10.188 4.004 9.976 4.092 9.8C4.188 9.624 4.332 9.492 4.524 9.404C4.724 9.308 4.976 9.26 5.28 9.26C5.472 9.26 5.68 9.26 5.904 9.26C6.136 9.26 6.372 9.26 6.612 9.26C6.852 9.26 7.076 9.26 7.284 9.26C7.5 9.26 7.684 9.26 7.836 9.26C7.996 9.26 8.124 9.296 8.22 9.368C8.316 9.44 8.38 9.532 8.412 9.644C8.444 9.748 8.444 9.856 8.412 9.968C8.38 10.072 8.316 10.16 8.22 10.232C8.124 10.304 7.996 10.34 7.836 10.34C7.684 10.34 7.484 10.34 7.236 10.34C6.996 10.34 6.744 10.34 6.48 10.34C6.224 10.34 5.984 10.34 5.76 10.34C5.536 10.34 5.372 10.34 5.268 10.34C5.084 10.34 4.912 10.304 4.752 10.232C4.6 10.16 4.464 10.06 4.344 9.932C4.224 9.796 4.128 9.64 4.056 9.464C3.992 9.288 3.96 9.096 3.96 8.888C3.96 8.792 3.96 8.66 3.96 8.492C3.96 8.324 3.96 8.152 3.96 7.976C3.96 7.792 3.96 7.624 3.96 7.472C3.96 7.112 4.008 6.812 4.104 6.572C4.208 6.324 4.368 6.14 4.584 6.02C4.808 5.9 5.104 5.84 5.472 5.84C5.656 5.84 5.804 5.84 5.916 5.84C6.028 5.84 6.128 5.84 6.216 5.84C6.304 5.84 6.408 5.84 6.528 5.84C6.736 5.84 6.908 5.84 7.044 5.84C7.188 5.84 7.336 5.84 7.488 5.84C7.64 5.84 7.836 5.84 8.076 5.84C8.276 5.84 8.428 5.896 8.532 6.008C8.636 6.112 8.688 6.236 8.688 6.38C8.688 6.524 8.636 6.652 8.532 6.764C8.428 6.868 8.276 6.92 8.076 6.92ZM12.4613 10.844C12.1893 10.844 11.9173 10.844 11.6453 10.844C11.3733 10.844 11.1133 10.844 10.8652 10.844C10.6173 10.844 10.3893 10.844 10.1813 10.844C9.98125 10.844 9.82925 10.792 9.72525 10.688C9.62125 10.576 9.56925 10.448 9.56925 10.304C9.56925 10.16 9.62125 10.036 9.72525 9.932C9.82925 9.82 9.98125 9.764 10.1813 9.764C10.3893 9.764 10.6133 9.764 10.8533 9.764C11.1013 9.764 11.3613 9.764 11.6333 9.764C11.9053 9.764 12.1813 9.764 12.4613 9.764C12.6693 9.764 12.8213 9.82 12.9173 9.932C13.0213 10.036 13.0733 10.16 13.0733 10.304C13.0733 10.448 13.0213 10.576 12.9173 10.688C12.8213 10.792 12.6693 10.844 12.4613 10.844ZM14.7994 12.62C14.9914 12.7 15.1794 12.772 15.3634 12.836C15.5554 12.892 15.7434 12.936 15.9274 12.968C16.1114 12.992 16.2874 13.004 16.4554 13.004C16.7354 13.004 16.9874 12.964 17.2114 12.884C17.4434 12.796 17.6274 12.664 17.7634 12.488C17.8994 12.312 17.9674 12.084 17.9674 11.804C17.9674 11.508 17.8794 11.272 17.7034 11.096C17.5354 10.912 17.3234 10.764 17.0674 10.652C16.8194 10.532 16.5754 10.424 16.3354 10.328C16.0394 10.208 15.7554 10.08 15.4834 9.944C15.2194 9.808 14.9834 9.652 14.7754 9.476C14.5754 9.3 14.4154 9.088 14.2954 8.84C14.1754 8.592 14.1154 8.296 14.1154 7.952C14.1154 7.616 14.1754 7.312 14.2954 7.04C14.4154 6.768 14.5834 6.536 14.7994 6.344C15.0234 6.152 15.2874 6.004 15.5914 5.9C15.8954 5.796 16.2354 5.744 16.6114 5.744C16.8914 5.744 17.1874 5.772 17.4994 5.828C17.8194 5.884 18.1474 5.976 18.4834 6.104C18.6754 6.176 18.7994 6.28 18.8554 6.416C18.9114 6.552 18.9114 6.688 18.8554 6.824C18.8074 6.96 18.7154 7.06 18.5794 7.124C18.4514 7.188 18.2914 7.184 18.0994 7.112C17.8354 7.016 17.5754 6.944 17.3194 6.896C17.0714 6.848 16.8354 6.824 16.6114 6.824C16.3314 6.824 16.0834 6.864 15.8674 6.944C15.6594 7.024 15.4954 7.148 15.3754 7.316C15.2554 7.484 15.1954 7.696 15.1954 7.952C15.1954 8.224 15.2754 8.444 15.4354 8.612C15.5954 8.78 15.7954 8.92 16.0354 9.032C16.2754 9.136 16.5114 9.232 16.7434 9.32C17.0394 9.448 17.3234 9.58 17.5954 9.716C17.8754 9.852 18.1234 10.012 18.3394 10.196C18.5554 10.38 18.7274 10.604 18.8554 10.868C18.9834 11.124 19.0474 11.436 19.0474 11.804C19.0474 12.172 18.9794 12.496 18.8434 12.776C18.7154 13.056 18.5314 13.296 18.2914 13.496C18.0594 13.688 17.7834 13.836 17.4634 13.94C17.1514 14.036 16.8154 14.084 16.4554 14.084C16.2954 14.084 16.1274 14.072 15.9514 14.048C15.7834 14.032 15.6114 14.004 15.4354 13.964C15.2594 13.924 15.0794 13.876 14.8954 13.82C14.7194 13.756 14.5434 13.684 14.3674 13.604C14.1834 13.524 14.0634 13.416 14.0074 13.28C13.9594 13.136 13.9634 13 14.0194 12.872C14.0834 12.736 14.1834 12.64 14.3194 12.584C14.4554 12.528 14.6154 12.54 14.7994 12.62ZM24.6932 6.92C24.5732 6.92 24.3772 6.92 24.1052 6.92C23.8412 6.92 23.5332 6.92 23.1812 6.92C22.8372 6.92 22.4892 6.92 22.1372 6.92C21.7932 6.92 21.4732 6.92 21.1772 6.92C20.8892 6.92 20.6692 6.92 20.5172 6.92C20.3572 6.92 20.2252 6.884 20.1212 6.812C20.0252 6.74 19.9612 6.652 19.9292 6.548C19.8972 6.436 19.8972 6.328 19.9292 6.224C19.9612 6.112 20.0252 6.02 20.1212 5.948C20.2252 5.876 20.3572 5.84 20.5172 5.84C20.7652 5.84 21.0132 5.864 21.2612 5.912C21.5172 5.952 21.7572 6.024 21.9812 6.128C22.2052 6.224 22.4052 6.352 22.5812 6.512C22.7572 6.672 22.8932 6.864 22.9892 7.088C23.0932 7.312 23.1452 7.576 23.1452 7.88C23.1452 8.2 23.1452 8.552 23.1452 8.936C23.1452 9.312 23.1452 9.684 23.1452 10.052C23.1452 10.412 23.1452 10.74 23.1452 11.036C23.1452 11.332 23.1452 11.556 23.1452 11.708C23.1452 11.9 23.1452 12.104 23.1452 12.32C23.1452 12.536 23.1452 12.748 23.1452 12.956C23.1452 13.156 23.1452 13.344 23.1452 13.52C23.1452 13.72 23.0892 13.872 22.9772 13.976C22.8732 14.08 22.7492 14.132 22.6052 14.132C22.4612 14.132 22.3332 14.08 22.2212 13.976C22.1172 13.872 22.0652 13.72 22.0652 13.52C22.0652 13.344 22.0652 13.156 22.0652 12.956C22.0652 12.748 22.0652 12.536 22.0652 12.32C22.0652 12.104 22.0652 11.9 22.0652 11.708C22.0652 11.556 22.0652 11.324 22.0652 11.012C22.0652 10.692 22.0652 10.34 22.0652 9.956C22.0652 9.564 22.0652 9.184 22.0652 8.816C22.0652 8.448 22.0652 8.136 22.0652 7.88C22.0652 7.632 22.0212 7.444 21.9332 7.316C21.8452 7.18 21.7252 7.084 21.5732 7.028C21.4292 6.972 21.2652 6.94 21.0812 6.932C20.8972 6.924 20.7092 6.92 20.5172 6.92C20.3572 6.92 20.2252 6.884 20.1212 6.812C20.0252 6.74 19.9612 6.652 19.9292 6.548C19.8972 6.436 19.8972 6.328 19.9292 6.224C19.9612 6.112 20.0252 6.02 20.1212 5.948C20.2252 5.876 20.3572 5.84 20.5172 5.84C20.7652 5.84 21.0532 5.84 21.3812 5.84C21.7172 5.84 22.0572 5.84 22.4012 5.84C22.7532 5.84 23.0892 5.84 23.4092 5.84C23.7292 5.84 24.0012 5.84 24.2252 5.84C24.4572 5.84 24.6132 5.84 24.6932 5.84C24.9012 5.84 25.0532 5.896 25.1492 6.008C25.2532 6.112 25.3052 6.236 25.3052 6.38C25.3052 6.524 25.2532 6.652 25.1492 6.764C25.0532 6.868 24.9012 6.92 24.6932 6.92ZM28.8305 14.024C28.5745 13.976 28.3345 13.908 28.1105 13.82C27.8945 13.724 27.6785 13.604 27.4625 13.46C27.1185 13.22 26.8185 12.924 26.5625 12.572C26.3065 12.22 26.1105 11.82 25.9745 11.372C25.8385 10.916 25.7705 10.428 25.7705 9.908C25.7705 9.092 25.9385 8.368 26.2745 7.736C26.6105 7.104 27.0705 6.612 27.6545 6.26C28.2385 5.9 28.9025 5.72 29.6465 5.72C30.3905 5.72 31.0505 5.9 31.6265 6.26C32.2025 6.62 32.6545 7.116 32.9825 7.748C33.3105 8.372 33.4745 9.092 33.4745 9.908C33.4745 10.412 33.4105 10.884 33.2825 11.324C33.1545 11.764 32.9705 12.16 32.7305 12.512C32.4905 12.856 32.2065 13.152 31.8785 13.4C31.6545 13.568 31.4265 13.704 31.1945 13.808C30.9705 13.904 30.7305 13.976 30.4745 14.024C30.2745 14.064 30.1145 14.04 29.9945 13.952C29.8745 13.864 29.7985 13.752 29.7665 13.616C29.7425 13.472 29.7665 13.34 29.8385 13.22C29.9185 13.092 30.0585 13.008 30.2585 12.968C30.4425 12.928 30.6105 12.876 30.7625 12.812C30.9225 12.74 31.0785 12.648 31.2305 12.536C31.4785 12.352 31.6865 12.128 31.8545 11.864C32.0305 11.6 32.1625 11.304 32.2505 10.976C32.3465 10.64 32.3945 10.284 32.3945 9.908C32.3945 9.452 32.3265 9.036 32.1905 8.66C32.0625 8.284 31.8785 7.956 31.6385 7.676C31.3985 7.396 31.1105 7.18 30.7745 7.028C30.4385 6.876 30.0625 6.8 29.6465 6.8C29.2305 6.8 28.8505 6.876 28.5065 7.028C28.1625 7.18 27.8665 7.396 27.6185 7.676C27.3705 7.948 27.1785 8.276 27.0425 8.66C26.9145 9.036 26.8505 9.452 26.8505 9.908C26.8505 10.292 26.8945 10.656 26.9825 11C27.0785 11.336 27.2185 11.64 27.4025 11.912C27.5865 12.176 27.8065 12.396 28.0625 12.572C28.2225 12.676 28.3745 12.76 28.5185 12.824C28.6705 12.88 28.8385 12.928 29.0225 12.968C29.2225 13.008 29.3625 13.092 29.4425 13.22C29.5225 13.34 29.5465 13.472 29.5145 13.616C29.4905 13.752 29.4185 13.864 29.2985 13.952C29.1865 14.04 29.0305 14.064 28.8305 14.024ZM34.9795 13.52C34.9795 13.36 34.9795 13.192 34.9795 13.016C34.9795 12.832 34.9795 12.66 34.9795 12.5C34.9795 12.332 34.9795 12.188 34.9795 12.068C34.9795 11.892 34.9795 11.628 34.9795 11.276C34.9795 10.924 34.9795 10.536 34.9795 10.112C34.9795 9.688 34.9795 9.272 34.9795 8.864C34.9795 8.456 34.9795 8.108 34.9795 7.82C34.9795 7.484 34.9955 7.192 35.0275 6.944C35.0595 6.688 35.1195 6.48 35.2075 6.32C35.3035 6.16 35.4355 6.04 35.6035 5.96C35.7715 5.88 35.9915 5.84 36.2635 5.84C36.4475 5.84 36.6395 5.84 36.8395 5.84C37.0475 5.84 37.2275 5.84 37.3795 5.84C37.7795 5.84 38.1395 5.904 38.4595 6.032C38.7875 6.152 39.0675 6.324 39.2995 6.548C39.5315 6.764 39.7075 7.02 39.8275 7.316C39.9555 7.612 40.0195 7.936 40.0195 8.288C40.0195 8.768 39.8995 9.192 39.6595 9.56C39.4275 9.92 39.1115 10.204 38.7115 10.412C38.3195 10.62 37.8835 10.724 37.4035 10.724C37.3395 10.724 37.2755 10.724 37.2115 10.724C37.1475 10.724 37.0875 10.724 37.0315 10.724C36.9755 10.724 36.9235 10.724 36.8755 10.724C36.8355 10.724 36.8035 10.724 36.7795 10.724C36.6195 10.724 36.4875 10.688 36.3835 10.616C36.2875 10.544 36.2235 10.456 36.1915 10.352C36.1595 10.24 36.1595 10.132 36.1915 10.028C36.2235 9.916 36.2875 9.824 36.3835 9.752C36.4875 9.68 36.6195 9.644 36.7795 9.644C37.1235 9.644 37.4195 9.676 37.6675 9.74C37.9235 9.804 38.1435 9.896 38.3275 10.016C38.5195 10.128 38.6835 10.26 38.8195 10.412C38.9635 10.556 39.0955 10.712 39.2155 10.88C39.3435 11.064 39.4675 11.252 39.5875 11.444C39.7155 11.628 39.8395 11.82 39.9595 12.02C40.0795 12.212 40.1995 12.408 40.3195 12.608C40.4475 12.808 40.5795 13.016 40.7155 13.232C40.8275 13.4 40.8635 13.556 40.8235 13.7C40.7835 13.844 40.7035 13.952 40.5835 14.024C40.4715 14.104 40.3395 14.132 40.1875 14.108C40.0435 14.084 39.9155 13.984 39.8035 13.808C39.6675 13.6 39.5355 13.396 39.4075 13.196C39.2875 12.988 39.1675 12.788 39.0475 12.596C38.9275 12.404 38.8075 12.216 38.6875 12.032C38.5755 11.848 38.4555 11.672 38.3275 11.504C38.1835 11.304 38.0515 11.148 37.9315 11.036C37.8195 10.924 37.6795 10.844 37.5115 10.796C37.3435 10.748 37.0995 10.724 36.7795 10.724C36.6195 10.724 36.4875 10.688 36.3835 10.616C36.2875 10.544 36.2235 10.456 36.1915 10.352C36.1595 10.24 36.1595 10.132 36.1915 10.028C36.2235 9.916 36.2875 9.824 36.3835 9.752C36.4875 9.68 36.6195 9.644 36.7795 9.644C36.8435 9.644 36.9075 9.644 36.9715 9.644C37.0355 9.644 37.0955 9.644 37.1515 9.644C37.2075 9.644 37.2675 9.644 37.3315 9.644C37.3955 9.644 37.4595 9.644 37.5235 9.644C37.8035 9.644 38.0475 9.592 38.2555 9.488C38.4715 9.376 38.6395 9.22 38.7595 9.02C38.8795 8.812 38.9395 8.568 38.9395 8.288C38.9395 8.008 38.8755 7.768 38.7475 7.568C38.6195 7.36 38.4395 7.2 38.2075 7.088C37.9755 6.976 37.6995 6.92 37.3795 6.92C37.1475 6.92 36.9515 6.92 36.7915 6.92C36.6395 6.92 36.5035 6.92 36.3835 6.92C36.2795 6.92 36.2035 6.94 36.1555 6.98C36.1075 7.02 36.0755 7.08 36.0595 7.16C36.0515 7.232 36.0475 7.324 36.0475 7.436C36.0555 7.548 36.0595 7.676 36.0595 7.82C36.0595 8.252 36.0595 8.668 36.0595 9.068C36.0595 9.46 36.0595 9.836 36.0595 10.196C36.0595 10.556 36.0595 10.892 36.0595 11.204C36.0595 11.516 36.0595 11.804 36.0595 12.068C36.0595 12.212 36.0595 12.36 36.0595 12.512C36.0595 12.656 36.0595 12.812 36.0595 12.98C36.0595 13.14 36.0595 13.32 36.0595 13.52C36.0595 13.72 36.0035 13.872 35.8915 13.976C35.7875 14.08 35.6635 14.132 35.5195 14.132C35.3755 14.132 35.2475 14.08 35.1355 13.976C35.0315 13.872 34.9795 13.72 34.9795 13.52ZM46.2323 6.92C45.9923 6.92 45.7243 6.92 45.4283 6.92C45.1403 6.92 44.8923 6.92 44.6842 6.92C44.5083 6.92 44.3643 6.92 44.2523 6.92C44.1483 6.92 44.0483 6.92 43.9523 6.92C43.8643 6.92 43.7563 6.92 43.6283 6.92C43.4043 6.92 43.2763 6.956 43.2443 7.028C43.2123 7.1 43.1963 7.248 43.1963 7.472C43.1963 7.68 43.1963 7.864 43.1963 8.024C43.1963 8.184 43.1963 8.332 43.1963 8.468C43.1963 8.604 43.1963 8.744 43.1963 8.888C43.1963 8.928 43.2003 8.972 43.2083 9.02C43.2163 9.06 43.2283 9.1 43.2443 9.14C43.2683 9.172 43.2923 9.2 43.3163 9.224C43.3483 9.248 43.3843 9.26 43.4243 9.26C43.5843 9.26 43.7763 9.26 44.0003 9.26C44.2323 9.26 44.4723 9.26 44.7203 9.26C44.9683 9.26 45.2043 9.26 45.4283 9.26C45.6523 9.26 45.8403 9.26 45.9923 9.26C46.1523 9.26 46.2803 9.296 46.3763 9.368C46.4723 9.44 46.5363 9.532 46.5683 9.644C46.6003 9.748 46.6003 9.856 46.5683 9.968C46.5363 10.072 46.4723 10.16 46.3763 10.232C46.2803 10.304 46.1523 10.34 45.9923 10.34C45.8403 10.34 45.6443 10.34 45.4043 10.34C45.1723 10.34 44.9283 10.34 44.6723 10.34C44.4163 10.34 44.1763 10.34 43.9523 10.34C43.7363 10.34 43.5643 10.34 43.4363 10.34C43.3563 10.34 43.2963 10.34 43.2563 10.34C43.2163 10.34 43.1963 10.372 43.1963 10.436C43.1963 10.716 43.1963 10.996 43.1963 11.276C43.1963 11.548 43.1963 11.796 43.1963 12.02C43.1963 12.244 43.1963 12.416 43.1963 12.536C43.1963 12.728 43.2203 12.84 43.2683 12.872C43.3163 12.904 43.4283 12.92 43.6043 12.92C43.8203 12.92 43.9923 12.92 44.1203 12.92C44.2483 12.92 44.4123 12.92 44.6123 12.92C44.7963 12.92 44.9563 12.92 45.0923 12.92C45.2363 12.92 45.3923 12.92 45.5603 12.92C45.7363 12.92 45.9603 12.92 46.2323 12.92C46.4323 12.92 46.5803 12.976 46.6763 13.088C46.7803 13.192 46.8323 13.316 46.8323 13.46C46.8323 13.604 46.7803 13.732 46.6763 13.844C46.5803 13.948 46.4323 14 46.2323 14C45.9603 14 45.6683 14 45.3563 14C45.0443 14 44.7963 14 44.6123 14C44.4123 14 44.2563 14 44.1443 14C44.0323 14 43.9363 14 43.8563 14C43.7843 14 43.7003 14 43.6043 14C43.2843 14 43.0123 13.952 42.7883 13.856C42.5723 13.76 42.4043 13.604 42.2843 13.388C42.1723 13.172 42.1163 12.888 42.1163 12.536C42.1163 12.352 42.1163 12.132 42.1163 11.876C42.1163 11.62 42.1163 11.364 42.1163 11.108C42.1163 10.852 42.1163 10.628 42.1163 10.436C42.1163 10.188 42.1603 9.976 42.2483 9.8C42.3443 9.624 42.4883 9.492 42.6803 9.404C42.8803 9.308 43.1323 9.26 43.4363 9.26C43.6283 9.26 43.8363 9.26 44.0603 9.26C44.2923 9.26 44.5283 9.26 44.7683 9.26C45.0083 9.26 45.2323 9.26 45.4403 9.26C45.6563 9.26 45.8403 9.26 45.9923 9.26C46.1523 9.26 46.2803 9.296 46.3763 9.368C46.4723 9.44 46.5363 9.532 46.5683 9.644C46.6003 9.748 46.6003 9.856 46.5683 9.968C46.5363 10.072 46.4723 10.16 46.3763 10.232C46.2803 10.304 46.1523 10.34 45.9923 10.34C45.8403 10.34 45.6403 10.34 45.3923 10.34C45.1523 10.34 44.9003 10.34 44.6363 10.34C44.3803 10.34 44.1403 10.34 43.9163 10.34C43.6923 10.34 43.5283 10.34 43.4243 10.34C43.2403 10.34 43.0683 10.304 42.9083 10.232C42.7563 10.16 42.6203 10.06 42.5003 9.932C42.3803 9.796 42.2843 9.64 42.2123 9.464C42.1483 9.288 42.1163 9.096 42.1163 8.888C42.1163 8.792 42.1163 8.66 42.1163 8.492C42.1163 8.324 42.1163 8.152 42.1163 7.976C42.1163 7.792 42.1163 7.624 42.1163 7.472C42.1163 7.112 42.1643 6.812 42.2603 6.572C42.3643 6.324 42.5243 6.14 42.7402 6.02C42.9643 5.9 43.2603 5.84 43.6283 5.84C43.8123 5.84 43.9603 5.84 44.0723 5.84C44.1843 5.84 44.2843 5.84 44.3723 5.84C44.4603 5.84 44.5643 5.84 44.6842 5.84C44.8923 5.84 45.0643 5.84 45.2003 5.84C45.3443 5.84 45.4923 5.84 45.6443 5.84C45.7963 5.84 45.9923 5.84 46.2323 5.84C46.4323 5.84 46.5843 5.896 46.6883 6.008C46.7923 6.112 46.8443 6.236 46.8443 6.38C46.8443 6.524 46.7923 6.652 46.6883 6.764C46.5843 6.868 46.4323 6.92 46.2323 6.92Z" fill="url(#paint0_linear_13_10)"/>
<g clip-path="url(#clip0_13_10)">
<path d="M51.3333 14.0834C51.3333 14.3928 51.4562 14.6895 51.675 14.9083C51.8938 15.1271 52.1906 15.25 52.5 15.25C52.8094 15.25 53.1061 15.1271 53.3249 14.9083C53.5437 14.6895 53.6666 14.3928 53.6666 14.0834C53.6666 13.7739 53.5437 13.4772 53.3249 13.2584C53.1061 13.0396 52.8094 12.9167 52.5 12.9167C52.1906 12.9167 51.8938 13.0396 51.675 13.2584C51.4562 13.4772 51.3333 13.7739 51.3333 14.0834Z" stroke="url(#paint1_linear_13_10)" stroke-linecap="round" stroke-linejoin="round"/>
<path d="M57.75 14.0834C57.75 14.3928 57.8729 14.6895 58.0917 14.9083C58.3105 15.1271 58.6072 15.25 58.9167 15.25C59.2261 15.25 59.5228 15.1271 59.7416 14.9083C59.9604 14.6895 60.0833 14.3928 60.0833 14.0834C60.0833 13.7739 59.9604 13.4772 59.7416 13.2584C59.5228 13.0396 59.2261 12.9167 58.9167 12.9167C58.6072 12.9167 58.3105 13.0396 58.0917 13.2584C57.8729 13.4772 57.75 13.7739 57.75 14.0834Z" stroke="url(#paint2_linear_13_10)" stroke-linecap="round" stroke-linejoin="round"/>
<path d="M58.9166 12.9167H52.5V4.75H51.3333" stroke="url(#paint3_linear_13_10)" stroke-linecap="round" stroke-linejoin="round"/>
<path d="M52.5 5.91669L60.6667 6.50002L60.0833 10.5834H52.5" stroke="url(#paint4_linear_13_10)" stroke-linecap="round" stroke-linejoin="round"/>
</g>
<defs>
<linearGradient id="paint0_linear_13_10" x1="25.5" y1="2" x2="25.5" y2="18" gradientUnits="userSpaceOnUse">
<stop stop-color="#00F7FF"/>
<stop offset="1" stop-color="#001353"/>
</linearGradient>
<linearGradient id="paint1_linear_13_10" x1="52.5" y1="12.9167" x2="52.5" y2="15.25" gradientUnits="userSpaceOnUse">
<stop stop-color="#00B7CF"/>
<stop offset="1" stop-color="#014D7F"/>
</linearGradient>
<linearGradient id="paint2_linear_13_10" x1="58.9167" y1="12.9167" x2="58.9167" y2="15.25" gradientUnits="userSpaceOnUse">
<stop stop-color="#00B7CF"/>
<stop offset="1" stop-color="#014D7F"/>
</linearGradient>
<linearGradient id="paint3_linear_13_10" x1="55.125" y1="4.75" x2="55.125" y2="12.9167" gradientUnits="userSpaceOnUse">
<stop stop-color="#00B7CF"/>
<stop offset="1" stop-color="#014D7F"/>
</linearGradient>
<linearGradient id="paint4_linear_13_10" x1="56.5833" y1="5.91669" x2="56.5833" y2="10.5834" gradientUnits="userSpaceOnUse">
<stop stop-color="#00B7CF"/>
<stop offset="1" stop-color="#014D7F"/>
</linearGradient>
<clipPath id="clip0_13_10">
<rect width="14" height="14" fill="white" transform="translate(49 3)"/>
</clipPath>
</defs>
</svg>
